<svg id="图层_1" data-name="图层 1" xmlns="http://www.w3.org/2000/svg" viewBox="0 0 54.79 60.12"><defs><style>.cls-1{fill:#1d1d1d;}</style></defs><path class="cls-1" d="M11.87,28.49V23.94a4.71,4.71,0,0,1,2.37-4.08l2.15-1.23a3.14,3.14,0,0,0,1.16-4.28l-.38-.65a3.13,3.13,0,0,0-4.26-1.15L7.18,15.83A4.67,4.67,0,0,0,4.81,19.9v8.59a3.13,3.13,0,0,0,3.13,3.13h.8A3.13,3.13,0,0,0,11.87,28.49Z" transform="translate(-4.81 -2)"/><path class="cls-1" d="M24.54,14,32.2,9.6l7.58,4.33a3.14,3.14,0,0,0,4.27-1.16l.37-.64a3.13,3.13,0,0,0-1.16-4.29l-9.5-5.43a3.14,3.14,0,0,0-3.11,0L21.06,7.89a3.14,3.14,0,0,0-1.16,4.28l.38.65A3.12,3.12,0,0,0,24.54,14Z" transform="translate(-4.81 -2)"/><path class="cls-1" d="M29.06,54.27,14.24,45.8a4.69,4.69,0,0,1-2.37-4.07V37.88a3.13,3.13,0,0,0-3.13-3.13h-.8a3.13,3.13,0,0,0-3.13,3.13v7.88a4.69,4.69,0,0,0,2.37,4.08L28.3,61.91a1.57,1.57,0,0,0,2.34-1.36V57A3.13,3.13,0,0,0,29.06,54.27Z" transform="translate(-4.81 -2)"/><path class="cls-1" d="M57.23,15.83,51.42,12.5a3.14,3.14,0,0,0-4.27,1.16l-.37.64a3.13,3.13,0,0,0,1.16,4.29l2.23,1.27a4.71,4.71,0,0,1,2.37,4.08V41.73a4.69,4.69,0,0,1-2.37,4.07L35.35,54.27A3.13,3.13,0,0,0,33.77,57v3.56a1.57,1.57,0,0,0,2.34,1.36L57.23,49.84a4.71,4.71,0,0,0,2.37-4.08V19.9A4.69,4.69,0,0,0,57.23,15.83Z" transform="translate(-4.81 -2)"/><path class="cls-1" d="M37.68,23.45V33.83a.78.78,0,0,1-1.4.47L27.66,23.1a3.11,3.11,0,0,0-2.48-1.22h0A3.13,3.13,0,0,0,22,25V40.67a1.56,1.56,0,0,0,1.56,1.56h3.13V29.37a.48.48,0,0,1,.85-.29l8.7,11.32A4.69,4.69,0,0,0,40,42.23h2.39V21.88H39.25A1.57,1.57,0,0,0,37.68,23.45Z" transform="translate(-4.81 -2)"/></svg>